<svg width="197" height="97" viewBox="0 0 197 97" fill="none" xmlns="http://www.w3.org/2000/svg">
<path d="M11.0457 10.2273L3.68208 20.0455L1.22754 29.0455V42.1364L3.68208 62.1818L5.31845 76.5L11.0457 84.2727L18.8184 87.5455L36.4094 85.9091L71.5912 81.8182L110.046 77.7273L133.773 76.5L149.318 77.7273L157.909 92.8636L162.409 81.8182L165.273 78.9546L182.455 77.7273L191.864 72.8182L193.091 57.2727L194.728 27L193.091 7.36365L188.591 2.45456H180.409H145.228H108.409H71.5912L26.1821 4.09092L11.0457 10.2273Z" fill="white" stroke="black" stroke-width="0.818182"/>
<path d="M16.8914 88.2031C19.432 88.43 21.9725 88.6568 24.5837 88.5056C26.2774 88.43 28.0416 88.2787 29.7353 88.3544C31.0056 88.3544 32.3465 88.43 33.5462 87.9007C34.5342 87.5226 35.5222 87.825 36.5101 87.7494C40.1798 87.447 43.7084 86.6152 47.3781 86.4639C49.9186 86.3127 52.5297 85.859 55.0703 85.5565C57.1168 85.3297 59.1634 84.9516 61.21 84.8003C63.3271 84.6491 65.3031 84.0442 67.3496 83.8173C69.1845 83.5905 71.0193 83.288 72.8541 83.288C76.5944 83.2124 80.2641 82.7587 83.9338 82.0781C89.0149 81.1707 94.096 81.0951 99.1771 80.6414C101.435 80.4146 103.623 80.2633 105.881 79.8096C107.998 79.3559 110.116 79.2047 112.233 78.9022C117.455 78.146 122.677 78.5997 127.899 78.5241C131.781 78.4485 135.662 78.5997 139.544 78.5241C142.225 78.4485 144.907 78.5998 147.589 78.4485C148.647 78.3729 149.282 78.751 149.847 79.8852C150.976 82.2294 151.611 84.8004 152.599 87.2201C153.376 89.1861 154.011 91.1522 155.21 92.8914C155.704 93.5719 155.916 94.4037 156.339 95.1599C156.904 96.2185 157.68 96.3698 158.457 95.4624C159.162 94.7062 159.515 93.8744 159.727 92.8158C160.362 88.7325 161.632 84.8004 163.608 81.2464C164.032 80.4902 164.667 80.0365 165.725 80.0365C166.996 80.0365 168.195 80.339 169.395 80.4902C171.301 80.6414 173.206 80.4146 175.111 80.4902C175.958 80.5658 176.805 80.4902 177.581 80.0365C178.005 79.8096 178.428 79.734 178.922 79.8096C181.886 79.9609 184.78 79.3559 187.461 78.146C188.943 77.4655 190.566 76.7093 191.695 75.0458C192.472 73.9871 193.53 73.1553 194.095 71.8698C194.659 70.7356 195.012 69.6013 194.942 68.3915C194.73 66.1986 195.083 64.0813 195.224 61.8884C195.365 59.9223 195.153 57.8807 195.295 55.9147C195.436 53.1168 195.153 50.2434 195.647 47.4455C195.789 46.5381 195.718 45.6307 195.789 44.7233C195.859 42.606 195.789 40.5644 196.071 38.4471C196.141 38.069 196 37.6153 195.93 37.2372C195.789 36.6323 195.718 36.0273 195.789 35.4224C196.212 32.1709 195.93 28.9193 196 25.7434C196.071 22.87 196 20.0721 196.353 17.1987C196.706 14.5521 196.424 11.8299 195.859 9.10766C194.801 4.19255 190.849 0.941008 186.473 0.714157C180.757 0.411688 175.041 0.336076 169.325 0.411693C165.02 0.48731 160.644 0.487301 156.339 0.26045C149.424 -0.117636 142.508 0.109225 135.592 0.0336076C129.875 0.0336076 124.23 -0.0420095 118.513 0.0336076C113.785 0.109225 108.986 0.109225 104.258 0.411693C101.929 0.562927 99.6711 0.487301 97.3422 0.638535C94.5194 0.865386 91.7671 0.638535 88.9443 0.638535C85.9098 0.714152 82.8752 0.562923 79.8407 0.714157C75.183 0.941008 70.5253 0.8654 65.8676 1.24349C62.0568 1.62157 58.246 1.69719 54.3646 1.69719C51.4712 1.69719 48.5072 1.92403 45.6138 1.92403C43.2144 1.99965 40.7444 1.99964 38.345 1.77279C36.863 1.69717 35.4516 1.99965 33.9696 1.92403C31.0762 1.7728 28.1828 1.92404 25.36 2.45336C23.2428 2.90707 20.9846 2.90707 19.0791 4.34379C17.6677 4.34379 16.6092 5.32681 15.2683 5.78051C12.6572 6.6123 10.6812 8.42711 8.70521 10.3175C7.43493 11.5274 6.23524 12.7373 5.38839 14.3252C4.47097 16.0644 3.55355 17.8792 2.84784 19.7697C1.29528 23.6261 0.942423 27.7851 0.377856 31.8684C0.0250021 34.4394 -0.0455688 37.086 0.0250021 39.7326C0.0955729 41.9255 0.448432 44.1184 0.801286 46.3113C1.15414 48.5798 1.43642 50.8483 1.36584 53.1168C1.2247 57.2757 1.50698 61.4347 2.28326 65.518C2.70668 67.7865 2.4244 70.2063 3.05954 72.3992C3.76525 74.8945 4.04753 77.4655 5.52952 79.734C6.23523 80.8683 6.72922 82.1538 7.57607 83.2124C9.76377 86.0102 12.6572 87.2957 15.9035 87.9763C16.0446 87.2957 15.0566 87.447 15.0566 86.7664C15.6917 86.3127 16.6092 86.842 17.0326 86.1615C17.456 85.4809 17.95 85.3297 18.5851 85.7078C19.0086 85.9346 19.1497 85.6321 19.2203 85.1784C17.2443 84.9516 15.3389 84.4979 13.4335 83.8173C13.4335 84.3466 13.3629 84.9516 12.6572 84.6491C12.0926 84.4223 11.8809 83.8929 12.4455 83.288C10.4695 81.7757 8.9875 79.8097 7.7878 77.4655C6.79981 75.4995 6.0941 73.3822 5.67067 71.1893C5.38839 69.6769 5.31781 68.089 5.17667 66.501C5.1061 65.518 5.17667 64.4594 4.89439 63.552C4.54153 62.1909 4.32983 60.8297 4.25925 59.4686C4.11811 56.6708 4.32981 53.7974 4.04753 50.9995C3.83582 49.0335 4.18869 46.9918 3.62412 45.0258C3.41241 44.2696 2.98898 43.4378 2.91841 42.6816C2.84784 40.2619 2.84783 37.7665 2.70669 35.2712C2.63612 33.6832 2.84782 32.0952 2.98897 30.5073C3.13011 28.39 3.27125 26.1971 4.1181 24.2311C4.40039 23.6261 4.47097 22.87 4.68268 22.1138C5.38839 19.316 6.37637 16.6694 8.35236 14.5521C9.41092 13.4178 10.6812 12.6617 11.7398 11.6786C12.2338 11.2249 12.6572 10.6956 13.2923 10.3175C16.0446 8.65396 19.0791 7.67093 22.1137 6.76352C22.9605 6.53667 23.878 6.15859 24.7248 6.08297C29.5236 5.55365 34.3225 5.17557 39.1918 5.3268C39.8976 5.3268 40.5327 5.55365 41.1678 5.55365C43.1438 5.47803 45.1904 5.25119 47.1663 5.3268C52.0357 5.40242 56.8346 5.17557 61.6334 4.94872C65.8676 4.79748 70.0313 4.4194 74.2656 4.26817C83.2281 4.04132 92.1906 4.26817 101.082 3.89008C104.046 3.73885 107.01 3.43638 109.974 3.512C113.574 3.66323 117.173 3.43638 120.772 3.43638C122.748 3.43638 124.724 3.66322 126.629 3.36075C128.041 3.1339 129.452 3.66323 130.793 3.43638C132.557 3.13391 134.392 3.36077 136.156 3.20953C138.908 2.98268 141.661 3.36076 144.413 3.43638C148.577 3.51199 152.74 3.512 156.904 3.58762C160.644 3.66324 164.385 3.81447 168.195 3.89008C169.889 3.89008 171.583 3.81447 173.276 3.89008C175.323 3.9657 177.44 3.81446 179.487 4.19255C181.674 4.57063 183.862 4.04131 186.05 4.11693C189.226 4.26816 192.189 6.99038 192.472 10.3175C192.683 12.4348 192.613 14.5521 192.754 16.6694C193.036 19.9965 192.331 23.3237 192.825 26.5752C192.966 27.407 192.401 28.1632 192.542 29.0706C192.754 30.2048 192.613 31.2635 192.542 32.3977C192.401 34.515 192.401 36.6323 192.401 38.6739C192.401 41.1693 192.401 43.7403 192.331 46.2356C192.26 48.8066 191.837 51.3776 191.837 53.9486C191.907 57.5782 191.766 61.2078 191.766 64.8375C191.766 65.9717 190.637 67.1059 191.837 68.1646C191.978 68.2402 191.695 68.4671 191.625 68.5427C191.343 68.9964 191.131 69.4501 190.919 69.9794C189.72 72.626 187.814 74.2896 185.203 75.197C184.215 75.4995 183.227 75.5751 182.239 75.9532C180.122 76.7093 177.864 77.0874 175.676 77.2386C172.5 77.3899 169.254 77.5411 166.149 76.6337C165.161 76.4069 164.314 76.8606 163.467 77.3899C161.562 78.5241 160.715 80.5658 159.797 82.4562C158.809 84.4223 158.033 86.5396 157.61 88.8081C157.539 89.1106 157.398 89.413 157.116 89.4886C156.833 89.4886 156.622 89.1862 156.551 88.8837C155.845 86.842 154.999 84.876 154.293 82.8343C153.587 80.717 152.882 78.5242 151.541 76.7093C150.835 75.7263 149.847 75.0458 148.788 75.2726C147.448 75.4995 146.107 75.197 144.766 75.2726C140.602 75.3482 136.438 75.2726 132.275 75.3482C126.559 75.4238 120.772 75.0458 115.056 75.6507C112.092 75.9532 109.128 76.2556 106.234 76.7849C103.341 77.3143 100.447 77.5411 97.554 77.6167C92.7551 77.8436 87.9563 78.3729 83.1575 79.0535C80.5464 79.4315 77.9352 80.0365 75.3241 79.9609C74.4773 79.9609 73.6304 79.9609 72.7836 80.0365C68.5493 80.5658 64.3151 81.0195 60.0808 81.7757C56.0583 82.4562 51.8946 82.6831 47.8721 83.2124C43.6378 83.7417 39.4035 84.1954 35.1693 84.7247C33.405 84.9516 31.7113 85.0272 29.9471 85.2541C27.9711 85.5565 25.9245 85.6321 23.878 85.4809C22.6077 85.4053 21.408 85.3297 20.2083 85.4809C20.2788 86.0102 19.926 86.3127 19.5731 86.6152C18.8674 87.2201 17.8089 87.5226 16.8914 88.2031ZM4.68268 68.4671C3.97698 68.089 3.97696 67.4084 3.4124 67.2572C3.05954 67.1816 3.13012 66.6523 3.13012 66.3498C3.13012 66.0473 3.20069 65.7448 3.55355 65.6692C3.9064 65.5936 4.04754 65.8205 4.18868 66.123C4.40039 66.7279 4.75325 67.4084 4.68268 68.4671ZM14.1392 86.9933C13.6452 86.6152 13.2218 86.4639 13.3629 85.9346C13.8569 85.9346 13.998 86.3127 14.1392 86.9933ZM3.76525 64.2325C3.97696 64.2325 4.04753 64.3837 4.04753 64.535C3.97696 64.6862 3.90639 64.8374 3.76525 64.9131C3.55354 64.9887 3.55355 64.7618 3.55355 64.6106C3.48297 64.4594 3.55354 64.3081 3.76525 64.2325ZM4.25925 69.5257C4.25925 69.2989 4.32982 69.2232 4.47096 69.072C4.6121 68.9964 4.68267 69.072 4.75324 69.2232C4.82381 69.4501 4.75324 69.7526 4.47096 69.7526C4.40039 69.7526 4.32983 69.6013 4.25925 69.5257Z" fill="#77C7E3"/>
<path d="M16.8913 88.2031C17.7382 87.4469 18.8673 87.2201 19.7142 86.4639C20.067 86.1614 20.4199 85.859 20.3493 85.3296C19.9965 85.254 19.6436 85.254 19.3613 85.1784C19.2908 85.5565 19.1496 85.859 18.7262 85.7077C18.0911 85.4053 17.5971 85.5565 17.1736 86.1615C16.6796 86.9176 15.7622 86.3127 15.1977 86.7664C15.1977 87.4469 16.1856 87.2957 16.0445 87.9762C16.2562 88.0519 16.6091 88.1275 16.8913 88.2031Z" fill="#69C5E1"/>
<path d="M4.68239 68.4671C4.75296 67.4841 4.47067 66.8035 4.18839 66.123C4.04725 65.8205 3.83554 65.5936 3.55325 65.6693C3.2004 65.7449 3.12982 66.0474 3.12982 66.3498C3.12982 66.7279 3.05925 67.1816 3.4121 67.2572C3.97667 67.4085 3.97668 68.089 4.68239 68.4671Z" fill="#69C5E1"/>
<path d="M13.5742 83.8172C13.2919 83.5147 13.0097 83.3635 12.5862 83.3635C12.0217 83.8928 12.1628 84.4222 12.798 84.7246C13.5037 84.9515 13.5742 84.3465 13.5742 83.8172Z" fill="#69C5E1"/>
<path d="M14.1387 86.9934C13.9975 86.3128 13.927 85.9347 13.3624 85.9347C13.2212 86.464 13.6447 86.6153 14.1387 86.9934Z" fill="#69C5E1"/>
<path d="M3.7656 64.2325C3.55389 64.2325 3.48332 64.3837 3.48332 64.6106C3.48332 64.7618 3.55388 64.9886 3.69502 64.913C3.83617 64.913 3.97732 64.6862 3.97732 64.5349C4.04789 64.3837 3.90674 64.3081 3.7656 64.2325Z" fill="#69C5E1"/>
<path d="M4.25888 69.5257C4.32945 69.6013 4.40002 69.7525 4.47059 69.7525C4.75287 69.7525 4.82344 69.4501 4.75287 69.2232C4.75287 69.072 4.61173 68.9963 4.47059 69.072C4.32945 69.2232 4.18831 69.3745 4.25888 69.5257Z" fill="#6FC6E2"/>
<path d="M35.6756 41.2222L36.1489 40.0871C36.2442 39.7771 36.2771 39.5354 36.2475 39.362C36.2396 39.1876 36.2333 39.0459 36.2284 38.9369C36.2235 38.828 36.2068 38.6977 36.1781 38.5461C36.1485 38.3727 36.0649 38.2126 35.9273 38.0659C35.8105 37.8964 35.6858 37.7928 35.553 37.7551C35.4411 37.6946 35.2188 37.6063 34.886 37.4901L34.1652 37.4896C33.5055 37.3882 32.9521 37.4675 32.5051 37.7278C32.5266 38.2073 32.4516 39.2153 32.2802 40.7518L32.1851 43.0165L32.0744 44.2008C32.2269 44.194 32.6139 44.0566 33.2352 43.7885L33.6754 43.3756C33.7616 43.3499 34.0233 43.098 34.4605 42.6198C34.5676 42.5713 34.6826 42.4569 34.8055 42.2767L35.1149 41.8697C35.1813 41.8886 35.2963 41.7742 35.4599 41.5267L35.6756 41.2222ZM32.2741 50.1215L32.3746 50.9032C32.4706 51.0955 32.4833 51.3788 32.4127 51.7533C32.3421 52.1277 32.3439 52.4116 32.4181 52.6048C32.4346 52.9753 32.4553 53.1928 32.48 53.2572C32.6762 53.2484 32.9665 53.1481 33.3511 52.9561C33.7574 52.7632 34.0146 52.6534 34.1226 52.6267C34.2306 52.6 34.3683 52.5065 34.5359 52.3461C35.0681 52.0384 35.6201 51.686 36.192 51.2891L36.9133 50.5689C37.5112 49.7777 37.9222 49.2023 38.1464 48.8429L38.3162 48.2456C38.5722 47.6226 38.2738 47.0572 37.4212 46.5494C37.2351 46.2956 36.8676 46.1374 36.3188 46.0746L36.2861 46.0761C35.5135 45.8923 35.0628 45.8251 34.9339 45.8746L33.51 46.2659C33.2543 46.4084 33.0175 46.4846 32.7995 46.4943C32.6034 46.5031 32.381 46.4148 32.1325 46.2294L32.2062 47.1433C32.0721 47.5643 32.0466 47.9695 32.1296 48.3589C32.2343 48.7473 32.2825 49.3349 32.2741 50.1215ZM33.9733 55.8767L33.679 55.8898C33.463 55.9432 33.0365 55.9295 32.3996 55.8489C31.2801 55.7243 30.3709 55.4156 29.6718 54.9227C29.4678 54.7572 29.2287 54.5385 28.9544 54.2669C28.701 53.9725 28.5718 53.7708 28.5669 53.6618C28.5621 53.5528 28.5557 53.4112 28.5479 53.2368C28.5619 53.0614 28.5432 52.8876 28.4918 52.7151L28.4801 52.4536C28.4088 52.3257 28.4095 52.0964 28.482 51.7655C28.5536 51.4129 28.5627 51.1286 28.5093 50.9126C28.453 50.6312 28.4067 50.3275 28.3702 50.0015C28.3009 49.9172 28.3229 49.676 28.4361 49.2778C28.4787 46.3275 28.4936 44.7107 28.4809 44.4273L28.6004 43.4392C28.4622 42.7902 28.4586 42.2225 28.5897 41.7361L28.5574 41.0169C28.522 40.7127 28.5696 39.826 28.7004 38.3569C28.6015 38.0992 28.2921 37.7746 27.7722 37.3829C27.6584 37.2788 27.542 37.1202 27.4233 36.9071C27.3036 36.6722 27.3306 36.2998 27.5043 35.7897C27.6273 35.6094 27.996 35.309 28.6105 34.8883C28.6483 34.7556 29.2255 34.4786 30.3423 34.0573L30.9518 33.7679C31.2521 33.6452 31.8604 33.5743 32.7768 33.5551C33.2811 33.598 33.6887 33.6781 33.9997 33.7952C35.1357 34.2903 36.188 34.8656 37.1565 35.5211C37.4457 35.6392 37.6497 35.8048 37.7684 36.0178C38.1725 36.2618 38.5511 36.6707 38.9045 37.2446C39.2786 37.7957 39.4909 38.1465 39.5413 38.2971C39.6815 38.9897 39.6101 39.8338 39.3271 40.8293C39.197 41.3374 38.5246 42.4159 37.3099 44.0646C37.5308 44.1202 37.9096 44.2889 38.4464 44.5706C38.5157 44.6549 38.7514 44.7972 39.1535 44.9976C39.2 45.061 39.2579 45.1349 39.3272 45.2191C39.4183 45.3024 39.4871 45.3758 39.5336 45.4392L39.8025 45.5909L40.1514 46.0667L40.6609 46.4698C40.8886 46.678 41.0737 46.9099 41.2162 47.1656C41.5568 47.4561 41.7424 47.699 41.773 47.8942L41.8662 48.5124C41.8551 48.7532 41.5633 49.5525 40.9908 50.9104C40.7725 51.4006 40.484 51.7848 40.1252 52.063L39.6611 52.6735C39.5381 52.8537 39.2972 53.0829 38.9384 53.361C38.6014 53.6382 38.3184 53.9021 38.0894 54.1526C37.9823 54.201 37.8124 54.3069 37.5794 54.4702C37.3683 54.6326 37.0388 54.833 36.5908 55.0714C36.1646 55.3089 35.8762 55.4529 35.7256 55.5033C35.2956 55.6536 34.7114 55.7781 33.9733 55.8767ZM49.3626 43.6885C49.4351 43.3577 49.4056 42.944 49.2742 42.4476C49.1158 42.3236 48.9058 42.2675 48.6442 42.2792C48.3173 42.2939 48.0367 42.6122 47.8025 43.2342C47.4772 43.773 47.2415 44.3623 47.0954 45.0022L47.0627 45.0036C46.864 45.9298 46.7661 46.4256 46.769 46.491C47.1217 46.5626 47.407 46.5935 47.6249 46.5837C47.8419 46.5521 48.0872 46.421 48.3608 46.1904C48.8406 45.6884 49.1745 44.8544 49.3626 43.6885ZM49.4754 48.4009L48.2701 48.5532C47.5944 48.5834 47.0574 48.542 46.6592 48.4288L46.7852 49.0456C46.9316 50.8517 47.4861 52.0172 48.4487 52.5419C48.7152 52.6392 48.9356 52.6839 49.11 52.6761C49.2843 52.6683 49.5093 52.5708 49.7848 52.3838C49.8681 52.2927 49.939 52.1694 49.9976 52.0139C50.0106 51.8167 50.1157 51.7247 50.3128 51.7377C51.1557 50.5642 51.8113 50.0871 52.2798 50.3064C52.7512 50.591 52.9908 50.8206 52.9986 50.9949C53.0025 51.0821 52.9524 51.1826 52.8483 51.2965L52.8571 51.4927C52.8669 51.7106 52.7428 52.1093 52.4848 52.6887C52.2486 53.2671 51.9868 53.7593 51.6992 54.1653C51.5613 54.4991 51.3753 54.7368 51.1414 54.8783C50.4635 55.3455 49.7302 55.553 48.9417 55.501C48.7663 55.487 48.6445 55.4488 48.5762 55.3863C48.3998 55.3505 48.2686 55.3455 48.1824 55.3712L47.9193 55.3502C47.7232 55.359 47.5577 55.3227 47.4231 55.2414C47.1992 55.1204 47.0437 55.0618 46.9565 55.0658C46.3801 54.8732 46.024 54.7253 45.8884 54.6222C45.7745 54.5181 45.673 54.4462 45.5839 54.4065C45.4947 54.3668 45.2774 54.1472 44.9319 53.7478C44.6378 53.5207 44.4675 53.3754 44.421 53.312C44.2814 53.1217 44.1552 52.9854 44.0423 52.9031C43.9512 52.8198 43.8879 52.6261 43.8525 52.3219C43.7604 52.2168 43.7105 52.0771 43.7027 51.9027L43.5602 51.647C43.5533 51.4945 43.4826 51.3775 43.3479 51.2962C43.2112 51.1713 43.1385 51.0107 43.1297 50.8146L43.118 50.553C43.0289 50.5133 43.0012 50.3835 43.0351 50.1636L42.997 49.3135L42.9511 49.0208L42.9409 48.7919C42.9152 48.7057 42.9287 48.5194 42.9814 48.2332L42.9355 47.9404C42.9563 47.9176 42.9812 47.7418 43.0101 47.4129C43.0768 46.9512 43.1622 46.6635 43.2663 46.5496L43.2531 46.2554C43.272 46.189 43.279 46.1013 43.2741 45.9924C43.2692 45.8834 43.2856 45.7625 43.3234 45.6298C43.3829 45.4961 43.5353 44.9979 43.7806 44.1351L44.2524 42.9674C44.3904 42.6336 44.614 42.2632 44.9234 41.8562C44.9403 41.7463 45.0187 41.5462 45.1586 41.256L45.566 40.8446C45.688 40.6426 45.8778 40.4921 46.1355 40.3932C46.4338 40.227 46.6593 40.1405 46.8118 40.1336L47.7214 39.9618C47.8314 39.9788 47.9081 39.9862 47.9517 39.9843L48.3768 39.9652C48.8582 39.9874 49.255 40.0679 49.567 40.2068C50.2296 40.3737 50.7204 40.6028 51.0392 40.8943C51.7491 41.6269 52.1196 42.342 52.1508 43.0394C52.1821 43.7369 52.1 44.3412 51.9045 44.8523C51.4152 46.1191 51.058 46.9213 50.8329 47.259C50.4728 47.9959 50.0203 48.3765 49.4754 48.4009ZM55.3403 41.193C55.8966 40.4474 56.686 40.0298 57.7084 39.9404C59.3838 39.7998 60.6448 40.1583 61.4913 41.0158C62.3596 41.8723 62.835 42.7356 62.9177 43.6055C63.0221 44.4744 62.8251 44.9528 62.3268 45.0406C61.6085 45.0946 61.1354 45.0175 60.9077 44.8093C60.7125 44.8399 60.4555 44.7095 60.1367 44.418C60.003 44.3585 59.8174 44.1156 59.5799 43.6895L59.1837 42.8882C58.9917 42.5037 58.764 42.2955 58.5005 42.2636C58.1794 42.409 58.0306 42.7433 58.054 43.2664C58.1871 44.2869 58.7214 45.2458 59.6571 46.143C59.6571 46.143 59.6694 46.1752 59.6941 46.2396C59.7397 46.2813 59.911 46.4483 60.208 46.7408C62.0148 48.5599 62.9768 50.0456 63.094 51.1979C63.1272 51.939 62.9966 52.4362 62.7022 52.6897C61.8147 53.8433 60.62 54.4755 59.118 54.5865C57.616 54.6975 56.3526 54.2845 55.3278 53.3476C55.0546 53.0978 54.9126 52.853 54.9018 52.6132C54.7525 52.2049 54.6967 51.9344 54.7344 51.8017C54.6417 51.1943 54.6212 50.7366 54.6729 50.4285C54.7725 49.7252 55.2686 49.3426 56.1612 49.2808C56.4882 49.2661 56.704 49.453 56.8088 49.8414C57.1419 50.9404 57.4362 51.6588 57.6916 51.9968C57.9688 52.3339 58.3902 52.4788 58.9559 52.4316C59.6733 52.3558 59.9931 51.9374 59.9153 51.1765C59.8593 50.4146 59.4679 49.7223 58.7412 49.0997C58.5115 48.8479 58.2847 48.6615 58.0609 48.5405C57.8579 48.3967 57.7223 48.2936 57.6539 48.2311C57.6292 48.1667 57.5718 48.1037 57.4817 48.0423C57.0301 47.713 56.4485 47.1603 55.7366 46.3841C55.0466 45.607 54.6642 44.8706 54.5894 44.1751C54.4465 42.9366 54.6968 41.9426 55.3403 41.193ZM70.1935 33.5498C70.1743 34.0967 70.1706 34.5009 70.1823 34.7624C70.193 35.0022 70.1919 35.2206 70.1789 35.4178L70.217 36.2678L70.1945 36.4982L70.2253 37.1847C70.2341 37.3809 70.232 37.5776 70.2189 37.7747L71.353 37.4946C71.4402 37.4907 71.7538 37.422 72.2938 37.2886C72.8338 37.1553 73.3223 37.0897 73.7592 37.092C74.2169 37.0715 74.526 37.145 74.6864 37.3125C74.8686 37.4791 74.967 37.7258 74.9816 38.0528C75.0369 38.3124 74.9719 38.5664 74.7864 38.815L74.6644 39.017C74.5028 39.3082 74.2604 39.5047 73.9374 39.6065L72.8004 39.8212L71.3452 40.2468L70.4771 40.6133C70.5233 41.1572 70.5829 41.7551 70.6558 42.4071C70.7505 43.058 70.8037 43.5143 70.8154 43.7758L70.9676 44.9812C71.3369 46.8865 71.7953 48.8316 72.3429 50.8164C72.4824 51.0067 72.6441 51.4472 72.8279 52.1378L73.1203 52.8127C73.2406 53.5498 72.7995 53.9409 71.7969 53.9858C71.6225 53.9936 71.1846 53.9695 70.4832 53.9136C70.2861 53.9006 69.994 53.7171 69.6068 53.3632C69.6049 53.3196 69.4786 53.1833 69.2281 52.9543L68.5396 51.4781C68.4931 51.4147 68.4293 51.2101 68.3483 50.8643C68.0978 50.6352 67.8772 50.0991 67.6866 49.2559C67.6846 49.2123 67.6579 49.1043 67.6065 48.9319L67.586 48.4742C67.4266 48.3284 67.2986 47.9083 67.202 47.2137C67.1053 46.5192 66.9997 45.8687 66.8852 45.2623C66.8471 44.4122 66.7451 43.5978 66.5792 42.819L66.4816 42.1027L66.4684 41.8084C66.4805 41.5895 66.4756 41.4805 66.4538 41.4815L66.0614 41.499C65.7365 41.5573 65.464 41.5695 65.2441 41.5356C64.285 41.5786 63.6081 41.3359 63.2131 40.8076C62.9252 40.2308 62.8972 39.8499 63.1292 39.6648C63.3611 39.4797 63.9418 39.2789 64.8712 39.0626C65.2854 39.044 65.813 38.8784 66.4542 38.5658C66.4298 38.0209 66.4488 37.7143 66.5113 37.646C66.5542 37.1417 66.6055 36.8227 66.665 36.689C66.7453 36.5325 66.793 36.3775 66.808 36.224C66.8063 35.6999 66.9569 34.9178 67.2598 33.8778C67.3681 33.3706 67.4728 33.0274 67.574 32.8481C67.8388 32.4213 68.4215 32.2642 69.3219 32.3767C69.6954 32.4255 69.9742 32.555 70.1583 32.7651C70.2228 32.7404 70.2345 33.002 70.1935 33.5498ZM89.1607 44.461L88.9592 43.6183C88.9563 43.5529 88.9311 43.4776 88.8836 43.3924C88.8579 43.3062 88.8178 43.1442 88.7635 42.9063C88.5833 42.7834 88.459 42.6907 88.3907 42.6282L88.2155 42.374L88.1042 42.0841C87.9923 42.0236 87.923 41.9394 87.8963 41.8313C87.8905 41.7006 87.8425 41.6044 87.7524 41.543C87.6831 41.4587 87.6252 41.3849 87.5787 41.3214C87.5312 41.2362 87.4851 41.1836 87.4406 41.1638C87.2385 41.0418 86.9765 41.0426 86.6544 41.1663C86.3324 41.2899 86.143 41.4512 86.0864 41.6503C85.753 42.4952 85.5917 43.0375 85.6024 43.2773C85.3441 44.3372 85.2901 45.0821 85.4404 45.5122C85.4281 46.2116 85.5582 47.1668 85.8309 48.3776L85.847 48.7372C86.0549 48.99 86.2557 49.3305 86.4496 49.7586C86.6803 50.0322 86.8312 50.2329 86.9025 50.3607C86.9946 50.4658 87.052 50.5288 87.0748 50.5496C87.2996 50.6924 87.4352 50.7955 87.4817 50.8589C87.6522 50.7639 87.7692 50.6932 87.8326 50.6467L87.8223 50.4178C87.9274 50.3257 88.0226 50.256 88.1078 50.2085C88.086 50.2094 88.1589 50.1297 88.3264 49.9693L88.4826 49.7985C88.7783 49.0864 88.9256 48.7195 88.9246 48.6977C88.9227 48.6541 88.9084 48.5783 88.8817 48.4703C88.7857 48.278 88.8334 48.123 89.0247 48.0052C89.0247 48.0052 89.1384 47.6179 89.3657 46.8433L89.357 46.6472C89.3947 46.5144 89.3685 46.4173 89.2784 46.3559L89.2681 46.127C89.3078 46.0379 89.3257 45.9497 89.3218 45.8625C89.3934 45.5099 89.4168 45.3013 89.3921 45.2369C89.3891 45.1715 89.3966 45.0948 89.4145 45.0066C89.4314 44.8966 89.4607 44.8189 89.5023 44.7733C89.5638 44.6832 89.45 44.5791 89.1607 44.461ZM84.2413 38.4897C84.4375 38.481 84.5782 38.4528 84.6634 38.4053C84.7695 38.335 84.9513 38.2505 85.209 38.1516C85.4884 38.0517 86.1423 38.0224 87.1707 38.0637C87.7422 38.1473 88.387 38.4023 89.105 38.8288C89.8399 39.1453 90.439 39.599 90.9023 40.1897C91.5848 41.7753 91.9856 43.1661 92.1047 44.3619C92.2303 46.1909 92.1238 47.7135 91.7852 48.9299C91.3018 50.3275 90.9783 51.15 90.8146 51.3976C90.7837 51.6829 90.626 52.0613 90.3413 52.5327C90.2323 52.5375 90.1456 52.5523 90.0812 52.5771C90.0822 52.5989 90.0197 52.6672 89.8938 52.782C89.7907 52.9177 89.6302 52.9904 89.4122 53.0002C89.1318 53.0782 88.9599 53.1405 88.8964 53.1871C88.8558 53.2544 88.7482 53.292 88.5739 53.2998L87.7594 53.4018L86.8767 53.4413C86.2882 53.4677 85.8162 53.4124 85.4606 53.2754L84.4505 52.6655L84.1059 52.2878C84.0405 52.2907 83.996 52.2709 83.9722 52.2283C83.9693 52.1629 83.956 52.1089 83.9322 52.0663C83.7292 51.9225 83.6233 51.7525 83.6145 51.5563C83.3582 51.1965 83.2266 50.9404 83.2197 50.7878C83.2129 50.6352 83.1753 50.5277 83.107 50.4652C83.0924 50.1383 82.9728 49.6632 82.7483 49.0399L82.6624 48.5851L82.6463 48.2254C82.6099 47.8994 82.5056 47.5219 82.3335 47.0928C82.3751 47.0473 82.3698 46.9274 82.3174 46.7332C82.2949 46.2319 82.2907 45.8935 82.3047 45.7182L82.1876 45.2976C82.2471 45.1639 82.2635 45.043 82.2368 44.935C82.232 44.826 82.2573 44.6611 82.313 44.4402L82.3027 44.2113L82.3822 43.0612C82.3754 42.9086 82.3918 42.7877 82.4315 42.6986L82.4212 42.4697C82.4648 42.4678 82.4927 42.3573 82.5047 42.1384L82.6564 41.8695L82.6774 41.6065C82.6745 41.5411 82.6607 41.4762 82.6359 41.4118L82.7774 40.914C82.7755 40.8705 82.8459 40.7363 82.9887 40.5115C82.9838 40.4025 83.0528 40.2356 83.1956 40.0108C83.1907 39.9018 83.2394 39.7686 83.3415 39.6111C83.3327 39.415 83.4414 39.1589 83.6675 38.843C83.8757 38.6153 84.067 38.4976 84.2413 38.4897ZM96.3765 39.0928L96.4126 38.4359C96.4107 38.3923 96.4281 38.2933 96.4648 38.1388C96.5234 37.9832 96.5671 37.741 96.5961 37.4122C96.6914 37.1021 96.7064 36.9486 96.641 36.9515C96.7005 36.8178 96.7348 36.6088 96.7439 36.3244C96.7293 35.9975 96.7681 35.6463 96.8605 35.2709C96.9519 34.8737 97.0066 34.631 97.0245 34.5428C97.0368 33.8434 97.1843 33.2362 97.467 32.7212C97.6743 32.4717 97.8756 32.0914 98.0711 31.5803C98.1625 31.1831 98.5298 30.85 99.173 30.5809L99.5521 30.2691C99.6393 30.2652 99.8117 30.2138 100.069 30.1149L101.077 29.9387L101.437 29.9226C102.853 29.8591 103.917 29.9643 104.629 30.2382L105.125 30.347L105.894 30.7057C106.385 31.4263 106.303 32.0197 105.647 32.4858C105.364 32.5203 105.015 32.5251 104.599 32.5C104.205 32.474 103.931 32.4644 103.779 32.4712C103.079 32.4589 102.508 32.6264 102.065 32.9739C101.639 33.2114 101.127 33.9769 100.53 35.2703C100.291 35.7834 100.125 36.2276 100.032 36.603C99.7406 37.4023 99.535 38.1759 99.4156 38.9239C99.9823 38.8985 100.736 38.8975 101.676 38.9209C102.637 38.9215 103.119 38.9654 103.123 39.0526C103.565 39.1639 103.781 39.6019 103.772 40.3667C103.764 40.6728 103.667 40.9502 103.482 41.1987C103.295 41.4255 103.07 41.5229 102.807 41.491L102.087 41.5233L100.717 41.6502C99.7581 41.6931 99.1146 41.711 98.7867 41.7039C98.5213 43.0917 98.4149 44.3741 98.4676 45.5511L98.9103 48.1193L98.922 48.3809L99.1675 50.2044C99.2654 50.4403 99.3173 50.6236 99.3232 50.7544L99.3705 51.0799C99.3724 51.1235 99.4001 51.2533 99.4535 51.4693C99.5068 51.6853 99.5185 51.9468 99.4886 52.2539C99.4587 52.561 99.3922 52.7824 99.289 52.9181C99.2077 53.0528 99.0803 53.1349 98.907 53.1645C98.7336 53.1941 98.3422 53.2335 97.7329 53.2826C97.2364 53.4141 96.7193 53.328 96.1816 53.0245C96.0479 52.965 95.9064 52.7311 95.757 52.3228C95.757 52.3228 95.7053 51.8993 95.6018 51.0521C95.6158 50.8768 95.5843 50.6598 95.5072 50.4012C95.4301 50.1425 95.398 49.9147 95.411 49.7175L95.3373 48.8035C95.2088 48.3725 95.1779 47.9261 95.2446 47.4645L95.2002 47.2044L95.1899 46.9756C95.1792 46.7358 95.2245 46.2861 95.326 45.6263L95.3026 45.1032C95.3683 44.6198 95.42 44.3117 95.4578 44.179C95.449 43.9828 95.4838 43.7847 95.5622 43.5846C95.4939 43.5221 95.4691 43.4577 95.488 43.3914C95.7073 42.9229 95.8096 42.5252 95.7949 42.1983L95.77 41.6424C94.702 41.6903 94.0665 41.6423 93.8635 41.4985C93.3999 41.3883 93.1068 41.183 92.9841 40.8827L92.867 40.4621C92.8416 39.8954 93.2213 39.5945 94.0059 39.5593L95.7953 39.2826C95.9697 39.2748 96.1634 39.2115 96.3765 39.0928ZM114.592 44.5012C114.574 44.5894 114.571 44.7642 114.583 45.0258C114.595 45.2873 114.583 45.5172 114.548 45.7153C114.514 45.9134 114.524 46.1532 114.581 46.4346C114.685 46.823 114.892 47.2942 115.201 47.8482C115.204 47.9136 115.375 48.0807 115.715 48.3494C115.803 48.3673 115.891 48.3851 115.979 48.403C116.089 48.42 116.178 48.4487 116.245 48.4894C116.312 48.5083 116.464 48.4905 116.701 48.4362C116.938 48.3601 117.088 48.2988 117.152 48.2522C117.236 48.1829 117.394 48.0448 117.625 47.8379C117.851 47.522 118.103 47.3033 118.382 47.1816C118.778 46.7707 119.155 46.4153 119.513 46.1153C119.859 46.0343 120.087 46.0023 120.197 46.0192C120.307 46.0361 120.431 46.1179 120.568 46.2646C120.889 46.5997 120.996 47.0426 120.89 47.5934C120.743 48.2115 120.442 48.8037 119.987 49.3701C119.906 49.5266 119.749 49.6756 119.515 49.8171C119.473 49.8627 119.412 49.9637 119.332 50.1202L118.739 50.7692C118.608 50.7751 118.524 50.8443 118.486 50.9771C118.448 51.1098 118.172 51.286 117.658 51.5056C117.004 51.5349 116.423 51.4953 115.916 51.387C114.816 51.1961 114.029 50.9365 113.555 50.6083L112.917 50.2437C112.869 50.1585 112.657 50.0479 112.279 49.9119L111.831 49.4079L111.317 48.9067L110.964 48.3329C110.894 48.2486 110.844 48.0871 110.811 47.8483C110.778 47.5877 110.735 47.3712 110.684 47.1988C110.703 47.1324 110.703 46.8922 110.684 46.4781C110.719 46.2799 110.73 46.0392 110.717 45.7559C110.758 45.6885 110.748 45.4597 110.687 45.0693L110.706 44.7736L110.686 44.3158C110.67 43.9671 110.697 43.5946 110.767 43.1984C110.836 42.8021 110.905 42.3841 110.972 41.9443C110.96 41.6609 110.981 41.4088 111.037 41.1879C110.963 40.9947 110.952 40.5146 111.005 39.7479L110.996 39.5517C110.987 39.3337 110.99 39.1589 111.006 39.0271L110.995 38.7983L110.971 36.801C110.968 36.7356 111.01 36.4498 111.097 35.9436C111.085 35.682 111.164 35.2526 111.334 34.6553C111.455 34.4315 111.512 34.2433 111.505 34.0907C111.5 33.9818 111.523 33.7623 111.574 33.4324C111.677 33.2968 111.74 32.9991 111.763 32.5394C111.785 32.5385 111.829 32.2963 111.895 31.8128C111.883 31.5513 111.99 31.2517 112.215 30.914C112.252 30.7813 112.442 30.6199 112.783 30.4299L112.815 30.4284C112.901 30.3809 113.225 30.3118 113.789 30.221C114.05 30.2093 114.392 30.2814 114.814 30.4372C114.923 30.4323 115.236 30.5821 115.751 30.8866C116.027 31.18 115.982 31.8809 115.616 32.9893C115.625 33.1855 115.551 33.4836 115.394 33.8838C115.403 34.0799 115.381 34.3103 115.327 34.5747C115.336 34.7709 115.229 35.5619 115.007 36.9478C114.806 38.3109 114.668 40.8287 114.592 44.5012ZM127.913 46.1977C127.909 46.1105 127.928 46.0332 127.968 45.9659C128.031 45.8976 128.113 45.7738 128.214 45.5945C128.207 45.442 128.292 44.8922 128.468 43.9452C128.63 43.1735 128.83 42.28 129.068 41.2647C129.131 41.1964 129.158 41.075 129.15 40.9007L129.408 39.3494C129.384 38.8045 129.511 38.4712 129.789 38.3495C129.998 38.1218 130.3 38.0536 130.698 38.145C131.095 38.2364 131.509 38.4581 131.94 38.8101C132.029 38.8498 132.117 38.8677 132.204 38.8638L132.679 39.2356C132.64 39.3248 132.638 39.7726 132.674 40.579C132.709 41.3637 132.741 41.8427 132.771 42.0161L132.796 42.5719C132.809 42.8553 132.828 43.0401 132.854 43.1263L132.871 43.5186L132.866 44.1413C132.973 44.5733 133.012 45.2049 132.984 46.0361L133.029 47.0496C133.01 47.116 133.015 47.2249 133.044 47.3765C133.072 47.5063 133.1 47.647 133.128 47.7986C133.109 47.8432 133.102 47.9309 133.107 48.0617L133.119 48.3232C133.174 48.5828 133.193 48.7567 133.175 48.8449L133.285 49.8228C133.384 50.0804 133.476 50.4366 133.562 50.8914C133.545 51.0014 133.554 51.2085 133.59 51.5126C133.492 51.7791 133.248 51.9211 132.855 51.9387C132.461 51.9126 132.161 51.8059 131.956 51.6186C131.846 51.6016 131.702 51.5426 131.523 51.4414C131.457 51.4444 131.358 51.4161 131.224 51.3565C131.109 51.2306 130.996 51.1483 130.885 51.1096C130.221 50.4187 129.813 49.607 129.662 48.6746C129.617 48.633 129.593 48.5795 129.59 48.5141C129.435 48.9578 129.054 49.7174 128.447 50.793C128.241 51.0643 128.097 51.2673 128.015 51.402C127.935 51.5584 127.874 51.6595 127.832 51.705C127.694 52.017 127.237 52.0702 126.464 51.8646C126.132 51.7703 125.922 51.725 125.835 51.729L124.808 51.4801C124.363 51.2817 123.969 51.0154 123.626 50.6813C123.539 50.6852 123.439 50.646 123.326 50.5637C123.212 50.4596 123.142 50.3645 123.117 50.2782L122.696 49.6746C122.424 49.4466 122.19 49.0858 121.993 48.5923C121.959 48.3317 121.916 48.1043 121.864 47.9101L121.855 47.7139L121.812 47.4866L121.841 46.6663L122.055 44.8549C122.138 44.7638 122.174 44.5984 122.163 44.3586L122.234 43.733C122.336 43.5756 122.382 43.3879 122.372 43.1699C122.413 43.1025 122.439 42.9485 122.45 42.7078C122.511 42.6177 122.539 42.4963 122.532 42.3437C122.547 42.1902 122.6 41.9148 122.691 41.5176C122.81 41.2502 122.86 40.8876 122.839 40.4299C122.818 39.9504 122.881 39.4016 123.028 38.7834C123.437 38.1754 124.073 37.994 124.936 38.2393C125.089 38.2325 125.322 38.3312 125.637 38.5355C125.973 38.717 126.219 38.8371 126.374 38.8956C126.556 39.0622 126.671 39.1881 126.719 39.2733C126.635 39.3644 126.586 39.4867 126.571 39.6403C126.02 41.9582 125.709 43.7957 125.639 45.153C125.628 45.3937 125.587 45.7013 125.516 46.0757C125.468 46.4492 125.419 46.8336 125.372 47.2288C125.244 48.2829 125.475 48.8185 126.066 48.8357C126.285 48.8478 126.49 48.7949 126.681 48.6771C126.873 48.5594 126.975 48.4128 126.989 48.2375C127.547 47.0331 127.855 46.3532 127.913 46.1977ZM136.295 39.3358C136.282 39.0524 136.413 38.8063 136.687 38.5974C136.686 38.5756 136.685 38.5538 136.684 38.532C136.678 38.3795 136.829 38.0997 137.138 37.6927C137.469 37.2848 137.655 37.0362 137.695 36.9471C138.161 36.6422 138.47 36.4646 138.621 36.4142C138.797 36.45 138.918 36.4664 138.983 36.4635L139.049 36.4605C139.674 36.2796 140.394 36.2692 141.209 36.4293C142.046 36.5883 142.64 36.9112 142.989 37.3979C143.178 37.717 143.372 38.1451 143.571 38.6822C143.867 39.4334 144.022 39.9833 144.038 40.3321C144.194 40.8929 144.228 41.4155 144.141 41.8999L144.123 42.2283C144.127 42.3155 144.076 42.4052 143.971 42.4972C143.866 42.5893 143.737 42.6387 143.585 42.6456C143.453 42.6296 143.335 42.6895 143.232 42.8252C143.128 42.939 142.902 43.0038 142.553 43.0194C142.226 43.034 142.047 42.9438 142.017 42.7486C141.95 42.7297 141.838 42.6583 141.679 42.5343C141.543 42.4094 141.473 42.3143 141.47 42.2489L141.296 42.0273C141.294 41.9838 141.248 41.9203 141.157 41.837C140.943 41.4535 140.853 41.1518 140.887 40.9318C140.971 40.3603 140.99 40.0536 140.944 40.012C140.929 39.6851 140.806 39.363 140.573 39.0458C140.55 39.025 140.506 39.016 140.441 39.019C140.396 38.9991 140.33 38.9803 140.242 38.9624C140.191 38.8118 140.144 38.7374 140.101 38.7394C139.95 38.7898 139.792 38.917 139.626 39.121C139.359 39.9847 139.2 40.5597 139.147 40.846L139.04 42.8491L139.107 44.3531C139.186 45.1358 139.295 45.6114 139.433 45.7799C139.437 45.8671 139.488 46.0177 139.585 46.2318C139.619 46.5142 139.87 47.0052 140.339 47.705L140.511 47.8938C140.634 48.1941 140.826 48.3384 141.087 48.3267C141.349 48.3149 141.706 47.9932 142.158 47.3614C142.133 47.297 142.263 47.0291 142.548 46.5577C142.834 46.1299 143.306 45.945 143.964 46.0029C144.25 46.0338 144.399 46.1909 144.411 46.4742C144.442 46.6694 144.398 47.1628 144.281 47.9543C144.073 48.182 143.974 48.4048 143.983 48.6228C143.848 49.022 143.782 49.2434 143.784 49.2869C143.718 49.2899 143.654 49.3255 143.592 49.3938L143.443 49.7281C143.356 49.732 143.303 49.778 143.286 49.8662C143.058 50.1603 142.901 50.3093 142.814 50.3132C142.752 50.3815 142.579 50.422 142.295 50.4347C141.889 50.6276 141.588 50.7285 141.392 50.7373L140.837 50.7949L140.472 50.6802L140.176 50.6607C139.91 50.5634 139.7 50.5182 139.548 50.525C139.418 50.5527 139.319 50.5462 139.252 50.5055C139.186 50.4866 139.096 50.4361 138.983 50.3538C138.712 50.1475 138.532 50.0463 138.445 50.0502C138.38 50.0532 138.257 49.9932 138.077 49.8702C137.901 49.8344 137.755 49.7645 137.642 49.6604L137.496 49.3393C137.533 49.1847 137.507 49.0985 137.419 49.0806C137.136 49.0933 136.97 49.0462 136.921 48.9391L136.713 48.6864C136.706 48.512 136.608 48.2871 136.421 48.0115L135.976 46.8521C135.931 46.8104 135.927 46.7342 135.966 46.6232L135.939 46.0347L135.433 43.5021L135.412 43.0444C135.576 42.3163 135.658 41.9414 135.657 41.9196C135.614 41.4411 135.703 41.0112 135.927 40.6299C135.908 40.2157 136.031 39.7844 136.295 39.3358ZM146.889 29.8522C146.886 29.7868 146.893 29.71 146.911 29.6218L146.864 28.5756C146.883 28.5093 146.89 28.4216 146.885 28.3126C146.879 28.1818 146.896 28.0719 146.936 27.9827C146.923 27.6994 147.031 27.4324 147.26 27.1819C147.34 27.0037 147.455 26.8893 147.605 26.8389C147.884 26.7172 148.433 26.78 149.252 27.0272C149.229 27.0064 149.251 27.0163 149.319 27.057C149.407 27.0749 149.462 27.0833 149.484 27.0824C149.703 27.0944 149.897 27.2823 150.066 27.646C150.077 27.8857 150.155 28.6684 150.302 29.9941C150.449 31.3198 150.509 32.4091 150.481 33.2621L150.496 33.589C150.505 35.2485 150.534 36.6449 150.585 37.7783C150.548 37.9111 150.554 38.0527 150.604 38.2034C150.572 38.4669 150.579 39.0999 150.624 40.1026L150.869 39.7312L151.018 39.3969C151.015 39.3315 151.055 39.2533 151.139 39.1622C151.221 39.0493 151.272 38.9706 151.292 38.926C151.311 38.8597 151.341 38.8037 151.383 38.7582C151.423 38.6908 151.454 38.6349 151.473 38.5903C151.514 38.523 151.63 38.4195 151.82 38.2799C151.817 38.2146 151.93 38.0675 152.16 37.8388L153.579 35.8752L154.403 35.2486C154.484 35.1139 154.698 34.9951 155.042 34.8923C155.408 34.7668 155.744 34.708 156.05 34.7162C156.368 34.5053 156.853 34.5928 157.503 34.9787C157.844 35.2692 157.872 35.6501 157.587 36.1215C157.078 36.9524 156.772 37.4356 156.669 37.5713L155.351 39.596L154.987 40.2347C154.268 41.2497 153.815 41.8597 153.627 42.0647C153.461 42.2468 153.391 42.4028 153.419 42.5326C153.715 42.8033 153.963 42.9778 154.163 43.0562C154.255 43.1613 154.336 43.256 154.405 43.3402C154.495 43.4017 154.541 43.4433 154.542 43.4651L156.182 44.9642C157.027 45.7999 157.659 46.4923 158.076 47.0415L159.655 48.6415C160.035 48.8429 160.231 49.0634 160.242 49.3032C160.252 49.543 160.055 49.7593 159.648 49.9522C159.523 50.0889 159.122 50.1396 158.443 50.1045C157.989 50.2122 157.651 50.2164 157.428 50.1172C156.817 50.1227 156.219 49.942 155.635 49.5751C155.251 49.3083 155.057 49.1096 155.051 48.9788C154.935 48.8311 154.82 48.7052 154.706 48.6011C154.568 48.4326 154.452 48.274 154.358 48.1253C154.179 48.046 153.949 47.7724 153.666 47.3046C153.464 47.1826 153.362 47.1107 153.361 47.0889C153.359 47.0453 153.29 46.9719 153.155 46.8688C153.019 46.7657 152.929 46.7042 152.884 46.6844C152.88 46.5972 152.683 46.333 152.292 45.8919C152.158 45.8324 152.045 45.7501 151.953 45.645C151.882 45.5171 151.857 45.4527 151.879 45.4517L151.223 44.6949L150.944 44.3143C151.018 45.9708 151.256 47.6309 151.658 49.2946C151.717 49.6414 151.748 49.8475 151.751 49.9128C151.776 49.9773 151.789 50.0313 151.791 50.0749C151.816 50.1393 151.829 50.1824 151.83 50.2042L151.597 50.1163C151.664 50.157 151.735 50.2739 151.809 50.4672C151.883 50.6604 151.911 50.7902 151.892 50.8566C151.705 51.0833 151.581 51.2309 151.519 51.2992C151.478 51.3665 151.338 51.4165 151.099 51.449C150.882 51.4806 150.761 51.4532 150.735 51.367C150.334 51.1884 150.099 51.0679 150.031 51.0055C149.899 50.9895 149.633 50.8923 149.232 50.7137C149.206 50.6275 149.171 50.5635 149.125 50.5219C148.923 50.3999 148.763 50.2433 148.645 50.052C148.556 50.0123 148.451 49.8641 148.331 49.6074C148.118 49.2457 148.002 48.8468 147.982 48.4109C147.931 48.2385 147.894 48.1419 147.871 48.1211C147.848 48.1002 147.833 48.0135 147.826 47.861L147.69 47.0153C147.614 46.7785 147.594 46.5719 147.63 46.3956L147.443 45.8798L147.326 44.7384L147.371 44.2778C147.231 44.0875 147.208 43.8046 147.3 43.4292L147.291 43.233C147.268 43.1904 147.237 42.9952 147.2 42.6474C147.162 42.2997 147.153 42.0926 147.172 42.0262C147.191 41.9599 147.198 41.8831 147.194 41.7959C147.137 41.4927 147.103 41.2212 147.092 40.9815L147.076 40.6218C146.87 38.4471 146.765 37.3379 146.763 37.2943L146.722 36.3789C146.694 36.2273 146.689 35.8671 146.707 35.2985C146.747 34.7289 146.748 34.2702 146.711 33.9224C146.695 33.5737 146.707 33.3547 146.747 33.2656C146.738 33.0694 146.751 32.8723 146.786 32.6741L146.77 32.3145C146.789 32.2481 146.801 32.0401 146.807 31.6904L146.889 29.8522ZM164.997 47.3539C165.053 47.133 165.206 46.8968 165.457 46.6453C165.729 46.3711 166.006 46.2276 166.289 46.2149C166.573 46.2022 166.822 46.1474 167.036 46.0505C167.25 45.9535 167.444 45.9011 167.618 45.8933C167.814 45.8845 168.111 45.9258 168.508 46.0172C168.926 46.0859 169.201 46.1282 169.333 46.1441C169.487 46.1591 169.607 46.1755 169.696 46.1934C169.806 46.2103 169.907 46.2822 170 46.4091C170.115 46.535 170.177 46.696 170.186 46.8922C169.924 48.3672 169.442 49.3169 168.741 49.7415L167.767 49.9489C167.484 49.9616 167.161 49.8232 166.799 49.5336C166.098 49.4995 165.742 49.3516 165.73 49.0901C165.728 49.0465 165.601 48.8884 165.349 48.6158C165.096 48.3432 164.966 48.1197 164.958 47.9453C164.951 47.7709 164.964 47.5738 164.997 47.3539ZM169.62 25.4924L169.436 27.9577C169.398 29.0732 169.284 31.164 169.094 34.2301C168.904 37.2963 168.834 39.3851 168.883 40.4967C168.932 41.5866 169.029 42.292 169.175 42.6131C168.954 43.038 168.658 43.2587 168.287 43.2753C168.091 43.2841 167.927 43.2696 167.794 43.2319C167.661 43.1941 167.573 43.1763 167.529 43.1782L167.399 43.1841L167.266 43.1572C166.73 42.395 166.415 41.7102 166.323 41.1029C165.912 40.2258 165.68 39.6684 165.625 39.4306C165.592 39.17 165.54 38.9976 165.471 38.9133C165.365 38.0008 165.31 37.5119 165.307 37.4465L165.246 36.0733C165.308 35.5245 165.327 34.9558 165.3 34.3673L165.278 33.8769C165.259 33.441 165.318 32.805 165.455 31.9689C165.591 31.111 165.647 30.4097 165.623 29.8647C165.597 29.298 165.731 28.6368 166.025 27.8811C166.341 27.1244 166.546 26.591 166.641 26.281C166.759 25.97 166.836 25.7481 166.874 25.6154C166.911 25.4827 166.961 25.3604 167.021 25.2484C167.122 25.0692 167.26 24.9757 167.434 24.9679C167.755 24.8224 167.981 24.7468 168.112 24.7409C169.093 24.697 169.596 24.9475 169.62 25.4924Z" fill="#15313D"/>
</svg>
